<svg xmlns="http://www.w3.org/2000/svg" width="123" height="45" viewBox="0 0 123 45">
    <g fill="#FFF" fill-rule="evenodd">
        <path d="M58.472 15.132c3.6 0 5.064 1.408 5.064 4.415v8.255s-.53.19-1.537.19c-.96 0-1.537-.19-1.537-.19l-.432-1.17c-.53 1.05-1.68 1.6-3.36 1.6-2.376 0-3.721-1.36-3.721-4.15 0-2.72 1.655-3.84 4.8-3.84.72 0 1.464.047 2.088.095v-.382c0-1.073-.505-1.813-1.97-1.813-1.488 0-2.927.548-2.927.548s-.481-.358-.793-1.122c-.336-.764-.24-1.456-.24-1.456s1.9-.98 4.565-.98zm-.17 7.348c-1.055 0-1.654.454-1.654 1.621 0 1.242.505 1.67 1.391 1.67 1.32 0 1.8-1.242 1.8-2.506v-.713a15.699 15.699 0 0 0-1.536-.072zM75.2 25.105s.215.526.215 1.455c0 .884-.215 1.432-.215 1.432H65.67c-.145-.478-.19-1.002-.19-1.504 0-.478.072-.93.19-1.383l5.57-6.872h-5.306s-.191-.595-.191-1.455c0-.86.19-1.432.19-1.432h9.288c.12.406.169.86.169 1.36 0 .526-.049 1.05-.17 1.527l-5.566 6.872H75.2zM86.695 15.205c2.353 0 3.385.643 3.385.643 0 .62-.215 1.312-.623 1.694 0 0-1.153-.382-2.52-.382-1.631 0-2.448.595-2.448 1.717 0 1.17 1.513 1.455 3.025 1.957 1.56.502 3.192 1.242 3.192 3.58 0 2.408-1.513 3.816-4.56 3.816-2.52 0-4.007-.86-4.007-.86 0-.692.215-1.36.647-1.765 0 0 1.56.595 3.24.595 1.464 0 2.305-.547 2.305-1.717 0-1.312-1.32-1.6-2.735-2.003-1.63-.478-3.41-1.17-3.41-3.531-.004-2.243 1.46-3.744 4.51-3.744zM103.182 27.826s-.409.168-1.201.168c-.817 0-1.2-.168-1.2-.168v-8.589c0-1.335-.697-2.099-2.233-2.099-1.056 0-2.087.572-2.713 1.528v9.163s-.433.168-1.201.168c-.84 0-1.2-.168-1.2-.168v-17.56s.36-.168 1.2-.168c.768 0 1.2.168 1.2.168v6.442c.866-.978 2.112-1.504 3.625-1.504 2.399 0 3.72 1.455 3.72 3.603v9.016h.003zM109.11 13.033s-.432.168-1.249.168c-.864 0-1.249-.168-1.249-.168V10.79s.385-.168 1.25-.168c.816 0 1.249.168 1.249.168v2.243zm-.048 14.793s-.408.168-1.2.168c-.841 0-1.201-.168-1.201-.168V15.61s.36-.168 1.2-.168c.793 0 1.201.168 1.201.168v12.216zM118.47 15.205c2.735 0 4.513 1.645 4.513 6.513 0 4.867-1.776 6.514-4.513 6.514-1.703 0-2.783-.571-3.455-1.551v6.68s-.408.143-1.225.143c-.792 0-1.176-.144-1.176-.144V15.61s.384-.168 1.176-.168c.817 0 1.225.168 1.225.168v1.146c.67-.98 1.75-1.551 3.455-1.551zm-.84 1.955c-1.68 0-2.617 1.383-2.617 3.007v3.055c0 1.645.935 3.055 2.616 3.055 1.921 0 2.88-1.002 2.88-4.556 0-3.56-.959-4.561-2.88-4.561zM20.722 38.852a16.694 16.694 0 0 1-12.957-7.175l5.042-2.092a11.363 11.363 0 0 0 8.715 4.05 11.35 11.35 0 0 0 6.87-2.301l4.436 2.051V23.42c.034-.356.053-.714.053-1.076 0-.358-.019-.711-.05-1.062l5.095-2.113 5.349-2.22a22.09 22.09 0 0 0-2.196-5.534A22.397 22.397 0 0 0 22.592.025C12.527-.451 3.699 5.753.449 14.709l5.187 2.448C7.898 10.2 14.621 5.322 22.32 5.689a16.692 16.692 0 0 1 13.45 7.929l-5.055 2.097a11.366 11.366 0 0 0-9.195-4.665c-6.274 0-11.36 5.056-11.36 11.294 0 .624.053 1.237.152 1.835l-5.003 2.075L0 28.456A22.04 22.04 0 0 0 2.414 33.9a22.395 22.395 0 0 0 18.035 10.619 22.426 22.426 0 0 0 20.255-10.741l-5.19-2.45a16.725 16.725 0 0 1-14.792 7.525zM16.39 21.654a5.411 5.411 0 0 1 5.342-4.491 5.42 5.42 0 0 1 3.116.982 5.372 5.372 0 0 1 2.187 5.537 5.418 5.418 0 0 1-5.303 4.265 5.41 5.41 0 0 1-2.921-.852 5.378 5.378 0 0 1-2.503-4.54c.002-.307.034-.608.082-.9z"/>
    </g>
</svg>
